<svg width="1178" height="686" viewBox="0 0 1178 686" fill="none" xmlns="http://www.w3.org/2000/svg">
<rect width="1178" height="686" fill="white"/>
<g id="undraw_medical_research_qg4d 1">
<path id="Vector" d="M360.554 318.133H208.92V464.141H360.554V318.133Z" fill="#CCCCCC"/>
<path id="Vector_2" d="M131.725 683.748H54.529L46.2581 626.769H139.996L131.725 683.748Z" fill="#E6E6E6"/>
<path id="Vector_3" d="M373.489 159.891L227.544 158.727C227.911 140.422 232.856 122.447 243.667 106.361C250.768 95.7971 250.614 84.3001 248.903 74.6141C246.263 59.6666 252.403 44.3731 266.048 34.8579C276.475 27.5737 289.635 23.8241 303.05 24.3152L305.884 24.4169C315.115 24.7473 324.101 27.0693 332.019 31.1698C339.936 35.2704 346.53 41.018 351.196 47.8849C355.938 55.2157 357.85 63.655 356.656 71.9832C355.731 79.8193 357.945 87.7353 363.122 95.7266C372.055 113.274 373.989 135.729 373.489 159.891Z" fill="#2F2E41"/>
<g id="legs">
<path id="Vector_4" d="M471.134 643.597L442.491 650.032L303.01 388.361L311.728 643.597H283.084C252.477 523.515 197.217 384.928 222.061 341.174L370.26 333.667L471.134 643.597Z" fill="#6C63FF"/>
<path id="Vector_5" d="M286.736 642.476L284.131 673.144C284.013 674.532 284.241 675.926 284.8 677.232C285.359 678.538 286.236 679.726 287.372 680.717C288.507 681.707 289.876 682.477 291.385 682.974C292.895 683.472 294.511 683.686 296.124 683.601L314.416 682.647C315.264 682.603 316.09 682.398 316.835 682.048C317.581 681.698 318.227 681.211 318.729 680.621C319.232 680.031 319.577 679.354 319.74 678.636C319.904 677.918 319.882 677.179 319.676 676.469L309.522 641.495L286.736 642.476Z" fill="#E6E6E6"/>
<path id="Vector_6" d="M439.743 660.611C461.272 664.948 476.651 671.112 486.754 679.455C490.351 682.404 495.059 684.141 500.02 684.352C506.356 684.639 511.537 684.028 515.43 682.53H515.431C516.428 682.151 517.29 681.55 517.926 680.788C518.562 680.026 518.95 679.131 519.049 678.196C519.167 677.247 518.988 676.287 518.53 675.418C518.072 674.548 517.353 673.799 516.446 673.25L465.387 641.965L443.699 649.437L438.64 653.793C438.092 654.265 437.679 654.84 437.433 655.473C437.186 656.105 437.114 656.778 437.221 657.439C437.328 658.1 437.611 658.73 438.049 659.28C438.486 659.831 439.066 660.286 439.743 660.611H439.743Z" fill="#E6E6E6"/>
</g>
<path id="Vector_7" d="M301.765 115.966C323.086 115.966 340.371 101.081 340.371 82.7205C340.371 64.3597 323.086 49.4754 301.765 49.4754C280.443 49.4754 263.158 64.3597 263.158 82.7205C263.158 101.081 280.443 115.966 301.765 115.966Z" fill="#FFB9B9"/>
<path id="Vector_8" d="M335.389 143.849L271.876 140.631C278.1 128.329 280.587 116.482 278.103 105.241H325.426C325.319 113.872 330.307 128.801 335.389 143.849Z" fill="#FFB9B9"/>
<path id="Vector_9" d="M375.241 343.319L235.761 351.899L250.082 139.023L274.367 133.124L301.764 138.486L329.162 126.689L346.597 132.052L375.241 343.319Z" fill="#6C63FF"/>
<path id="Vector_10" d="M259.422 496.675L164.152 477.908C192.481 397.012 243.516 211.945 227.043 145.993L276.857 126.69L259.422 496.675Z" fill="#E6E6E6"/>
<path id="Vector_11" d="M213.344 262.887L177.228 243.584L208.028 165.903C211.463 157.887 218.043 151.157 226.63 146.876L237.006 141.704L230.779 219.99L213.344 262.887Z" fill="#E6E6E6"/>
<path id="Vector_12" d="M458.058 478.98C427.988 493.961 352.825 502.312 319.822 491.849C317.394 418.759 312.631 212.013 327.917 124.545L382.713 143.849L377.732 201.759C351.535 251.299 427.605 423.845 458.058 478.98Z" fill="#E6E6E6"/>
<path id="Vector_13" d="M453.699 253.236L420.074 243.584L375.241 199.614L382.714 143.848L457.435 233.932L453.699 253.236Z" fill="#E6E6E6"/>
<path id="Vector_14" d="M335.389 74.1411C313.946 66.548 292.767 65.9986 271.876 73.0687L263.158 46.2581H342.862L335.389 74.1411Z" fill="#2F2E41"/>
<g id="hands">
<path id="Vector_15" d="M373.996 276.829L390.185 302.567C417.416 296.027 441.016 275.408 463.662 251.091L457.435 233.932L418.829 242.511L373.996 276.829Z" fill="#E6E6E6"/>
<path id="Vector_16" d="M348.319 294.978C348.869 297.057 350.354 298.863 352.449 300.001C354.543 301.138 357.076 301.514 359.492 301.046L388.035 295.48L383.91 279.791L355.366 285.356C352.95 285.828 350.851 287.106 349.529 288.91C348.208 290.715 347.772 292.897 348.319 294.978V294.978Z" fill="#FFB9B9"/>
</g>
<path id="Vector_17" d="M362.165 223.744H357.183C357.183 163.073 342.677 120.791 328.54 120.791L327.294 116.502C339.972 116.502 348.055 134.099 352.603 148.861C358.769 168.875 362.165 195.468 362.165 223.744Z" fill="#3F3D56"/>
<path id="Vector_18" d="M247.591 208.73H242.61C242.61 153.165 257.217 118.647 278.725 118.647L277.48 122.936C262.602 122.936 247.591 149.465 247.591 208.73Z" fill="#3F3D56"/>
<path id="Vector_19" d="M359.674 235.541C366.552 235.541 372.128 230.739 372.128 224.816C372.128 218.894 366.552 214.092 359.674 214.092C352.796 214.092 347.22 218.894 347.22 224.816C347.22 230.739 352.796 235.541 359.674 235.541Z" fill="#3F3D56"/>
<path id="Vector_20" d="M227.665 234.468H222.684C222.684 219.093 232.74 206.585 245.1 206.585V210.875C235.487 210.875 227.665 221.459 227.665 234.468Z" fill="#3F3D56"/>
<path id="Vector_21" d="M267.517 234.468H262.536C262.536 221.459 254.714 210.875 245.1 210.875V206.585C257.461 206.585 267.517 219.093 267.517 234.468Z" fill="#3F3D56"/>
<path id="Vector_22" d="M265.026 239.83C267.777 239.83 270.008 237.91 270.008 235.541C270.008 233.171 267.777 231.251 265.026 231.251C262.275 231.251 260.045 233.171 260.045 235.541C260.045 237.91 262.275 239.83 265.026 239.83Z" fill="#3F3D56"/>
<path id="Vector_23" d="M225.175 239.83C227.926 239.83 230.156 237.91 230.156 235.541C230.156 233.171 227.926 231.251 225.175 231.251C222.423 231.251 220.193 233.171 220.193 235.541C220.193 237.91 222.423 239.83 225.175 239.83Z" fill="#3F3D56"/>
<path id="Vector_24" d="M162.906 196.094L193.987 200.873L265.026 287.857L227.286 280.21L162.906 196.094Z" fill="#6C63FF"/>
<path id="Vector_25" d="M157.393 195.029C156.92 195.036 156.457 195.151 156.053 195.364C155.649 195.577 155.319 195.88 155.097 196.24C154.875 196.601 154.77 197.006 154.793 197.413C154.815 197.821 154.964 198.215 155.224 198.556L221.628 285.316C221.999 285.801 222.571 286.145 223.227 286.278L254.123 292.538C254.644 292.643 255.19 292.61 255.688 292.442C256.187 292.274 256.614 291.98 256.914 291.598C257.214 291.217 257.372 290.765 257.367 290.305C257.362 289.844 257.194 289.395 256.886 289.018L183.979 199.749C183.781 199.506 183.53 199.299 183.239 199.139C182.948 198.98 182.624 198.871 182.284 198.82L157.891 195.068C157.727 195.043 157.56 195.03 157.393 195.029V195.029Z" fill="#3F3D56"/>
<path id="Vector_26" d="M198.816 257.062L200.662 273.07L229.784 270.58C232.25 270.37 234.517 269.324 236.087 267.674C237.657 266.024 238.401 263.905 238.157 261.782C237.912 259.659 236.698 257.707 234.782 256.355C232.866 255.003 230.405 254.362 227.94 254.572L198.816 257.062Z" fill="#FFB9B9"/>
<path id="Vector_27" d="M173.493 255.208C173.535 260.666 176.081 265.889 180.575 269.738C185.07 273.587 191.148 275.75 197.487 275.756H202.276L205.762 250.738L176.897 241.79L173.493 255.208Z" fill="#E6E6E6"/>
<path id="Vector_28" d="M34.7055 605.69C54.5829 628.614 95.8444 631.026 95.8444 631.026C95.8444 631.026 104.878 596.273 85.001 573.35C65.1237 550.426 23.8621 548.013 23.8621 548.013C23.8621 548.013 14.8282 582.767 34.7055 605.69Z" fill="#E6E6E6"/>
<path id="Vector_29" d="M135.965 614.308C122.849 629.434 95.6213 631.026 95.6213 631.026C95.6213 631.026 89.66 608.094 102.777 592.967C115.893 577.841 143.12 576.249 143.12 576.249C143.12 576.249 149.082 599.181 135.965 614.308Z" fill="#E6E6E6"/>
<path id="Vector_30" d="M716.205 683.34H0V686H716.205V683.34Z" fill="#3F3D56"/>
</g>
</svg>
